<?xml version="1.0" encoding="iso-8859-1"?>
<!-- Generator: Adobe Illustrator 19.0.0, SVG Export Plug-In . SVG Version: 6.00 Build 0)  -->
<svg xmlns="http://www.w3.org/2000/svg" xmlns:xlink="http://www.w3.org/1999/xlink" version="1.1" id="Layer_1" x="0px" y="0px" viewBox="0 0 512.071 512.071" style="enable-background:new 0 0 512.071 512.071;" xml:space="preserve" width="512" height="512">
<g>
	<polygon points="474.541,58.692 503.893,58.692 503.893,0 8.179,0 8.179,58.692 37.579,58.692  "/>
	<path d="M37.579,88.692v300.29h203.457v31.15c-18.692,6.284-32.198,23.958-32.198,44.74c0,26.025,21.173,47.198,47.198,47.198   s47.198-21.173,47.198-47.198c0-20.782-13.507-38.457-32.198-44.74v-31.15h203.505V88.692 M273.234,464.873   c0,9.483-7.715,17.198-17.198,17.198s-17.198-7.715-17.198-17.198s7.715-17.198,17.198-17.198S273.234,455.39,273.234,464.873z    M383.38,218.565l-5.093-20.178l-46.762,90.805l-48.217-40.239l-45.937,56.956l-65.592-60.333l-49.844,65.861l-23.922-18.104   l69.771-92.191l66.333,61.014l44.99-55.782l42.89,35.793l29.694-57.66l-19.565,7.594l-10.855-27.967l72.232-28.038l18.964,75.126   L383.38,218.565z"/>
</g>















</svg>
