<svg id="Layer_1" enable-background="new 0 0 512.29 512.29" height="512" viewBox="0 0 512.29 512.29" width="512" xmlns="http://www.w3.org/2000/svg"><path d="m187.174 512.29c-11.046 0-20-8.954-20-20v-8c0-11.028-8.972-20-20-20h-16.985c-38.865.695-73.929-31.498-76.545-70.283-.001.001-4.005-46.851-4.005-46.851-37.285-1.868-61.476-44.665-43.405-77.542 9.749-18.655 24.283-40.562 44.353-66.835 1.369-147.473 136.324-224.658 273.611-197.347 25.736 6.258 18.097 43.585-8.046 39.181-118.072-24.038-229.22 45.057-225.651 165.086-.003 4.433-1.477 8.742-4.193 12.247-20.448 26.392-35.462 48.663-44.624 66.194-3.044 5.824-.711 10.847.434 12.735 1.168 1.929 4.613 6.414 11.357 6.414 18.758 0 34.108 14.094 35.705 32.783l4.318 50.528c1.642 19.205 17.416 33.688 36.691 33.688h16.985c33.084 0 60 26.916 60 60v8c0 11.048-8.954 20.002-20 20.002zm249-20v-124c0-30.314 11.022-49.469 23.785-71.646 12.756-22.168 27.215-47.292 27.215-83.354 0-8.774-.416-17.499-1.235-25.931-1.068-10.994-10.845-19.036-21.841-17.972-10.994 1.068-19.04 10.847-17.972 21.84.695 7.152 1.047 14.575 1.047 22.063 0 25.373-10.142 42.997-21.884 63.402-13.647 23.716-29.116 50.596-29.116 91.598v124c.94 26.405 38.989 26.584 40.001 0zm-232.954-284.997c-17.524.185-26.792-21.775-14.09-34.194 0 0 44.975-44.633 45.219-44.852 25.343-22.792 63.093-24.076 89.915-3.107 12.502 11.162 31.855 10.934 43.184-1.779 0 0 40.853-45.439 40.853-45.439 7.386-8.214 20.031-8.886 28.245-1.501s8.886 20.031 1.501 28.245l-40.86 45.447c-24.629 27.36-66.387 30.838-95.141 8.335-11.576-10.261-28.882-11.154-40.626-.746l-44.11 43.786c-3.901 3.871-8.997 5.805-14.09 5.805zm308.954-93v-54c0-33.084-26.916-60-60-60h-54c-11.046 0-20 8.954-20 20s8.954 20 20 20h54c11.028 0 20 8.972 20 20v54c.956 26.461 39.015 26.527 40 0z"/></svg>